<svg width="48" height="48" viewBox="0 0 48 48" fill="none" xmlns="http://www.w3.org/2000/svg">
<path d="M31.4999 24C31.4999 25.9891 30.7097 27.8968 29.3032 29.3033C27.8967 30.7098 25.989 31.5 23.9999 31.5C22.0108 31.5 20.1031 30.7098 18.6966 29.3033C17.2901 27.8968 16.4999 25.9891 16.4999 24C16.4999 23.5725 16.5449 23.155 16.6224 22.75H13.9999V32.7425C13.9999 33.4375 14.5624 34 15.2574 34H32.7449C33.078 33.9993 33.3972 33.8666 33.6325 33.6308C33.8677 33.395 33.9999 33.0756 33.9999 32.7425V22.75H31.3774C31.4549 23.155 31.4999 23.5725 31.4999 24ZM23.9999 29C24.6567 28.9998 25.307 28.8703 25.9137 28.6188C26.5204 28.3673 27.0716 27.9988 27.5359 27.5343C28.0002 27.0698 28.3685 26.5183 28.6197 25.9115C28.8708 25.3046 29 24.6543 28.9999 23.9975C28.9997 23.3407 28.8702 22.6904 28.6187 22.0837C28.3672 21.477 27.9987 20.9257 27.5342 20.4614C27.0696 19.9972 26.5182 19.6289 25.9114 19.3777C25.3045 19.1265 24.6542 18.9973 23.9974 18.9975C22.671 18.9978 21.399 19.5251 20.4613 20.4632C19.5236 21.4014 18.997 22.6736 18.9974 24C18.9977 25.3264 19.5249 26.5984 20.4631 27.5361C21.4012 28.4737 22.6735 29.0003 23.9999 29ZM29.9999 18.75H32.9974C33.1965 18.75 33.3875 18.6711 33.5286 18.5305C33.6696 18.3899 33.7492 18.1991 33.7499 18V15.0025C33.7499 14.8029 33.6706 14.6115 33.5295 14.4704C33.3884 14.3293 33.197 14.25 32.9974 14.25H29.9999C29.8003 14.25 29.6089 14.3293 29.4678 14.4704C29.3267 14.6115 29.2474 14.8029 29.2474 15.0025V18C29.2499 18.4125 29.5874 18.75 29.9999 18.75ZM23.9999 0C17.6347 0 11.5302 2.52856 7.02932 7.02944C2.52844 11.5303 -0.00012207 17.6348 -0.00012207 24C-0.00012207 30.3652 2.52844 36.4697 7.02932 40.9706C11.5302 45.4714 17.6347 48 23.9999 48C27.1516 48 30.2725 47.3792 33.1843 46.1731C36.0961 44.967 38.7418 43.1992 40.9704 40.9706C43.1991 38.742 44.9669 36.0962 46.173 33.1844C47.3791 30.2726 47.9999 27.1517 47.9999 24C47.9999 20.8483 47.3791 17.7274 46.173 14.8156C44.9669 11.9038 43.1991 9.25804 40.9704 7.02944C38.7418 4.80083 36.0961 3.033 33.1843 1.82689C30.2725 0.620778 27.1516 0 23.9999 0ZM36.4999 33.7225C36.4999 35.25 35.2499 36.5 33.7224 36.5H14.2774C12.7499 36.5 11.4999 35.25 11.4999 33.7225V14.2775C11.4999 12.75 12.7499 11.5 14.2774 11.5H33.7224C35.2499 11.5 36.4999 12.75 36.4999 14.2775V33.7225Z" fill="white"/>
</svg>
